{
  "accessors": [
    {
      "bufferView": 2,
      "componentType": 5126,
      "count": 9484,
      "max": [
        0.4969629943370819,
        0.6759799718856812,
        0.7900500297546387
      ],
      "min": [
        -0.9998480081558228,
        -0.6759799718856812,
        -0.2699350118637085
      ],
      "type": "VEC3"
    },
    {
      "bufferView": 2,
      "byteOffset": 113808,
      "componentType": 5126,
      "count": 9484,
      "max": [
        1.0,
        1.0,
        0.9792113304138184
      ],
      "min": [
        -1.0,
        -1.0,
        -0.9999973773956299
      ],
      "type": "VEC3"
    },
    {
      "bufferView": 1,
      "componentType": 5126,
      "count": 9484,
      "max": [
        0.9555799961090088,
        0.9831399917602539
      ],
      "min": [
        0.0019499999471008778,
        0.0019499999471008778
      ],
      "type": "VEC2"
    },
    {
      "bufferView": 0,
      "componentType": 5125,
      "count": 42264,
      "type": "SCALAR"
    },
    {
      "bufferView": 2,
      "byteOffset": 227616,
      "componentType": 5126,
      "count": 7911,
      "max": [
        0.4969629943370819,
        0.3122769892215729,
        0.7580350041389465
      ],
      "min": [
        -0.8242499828338623,
        -0.2936739921569824,
        -0.26111799478530884
      ],
      "type": "VEC3"
    },
    {
      "bufferView": 2,
      "byteOffset": 322548,
      "componentType": 5126,
      "count": 7911,
      "max": [
        1.0,
        1.0,
        0.869801938533783
      ],
      "min": [
        -1.0,
        -1.0,
        -1.0
      ],
      "type": "VEC3"
    },
    {
      "bufferView": 1,
      "byteOffset": 75872,
      "componentType": 5126,
      "count": 7911,
      "max": [
        0.8752599954605103,
        0.965470016002655
      ],
      "min": [
        0.1444299966096878,
        0.23875999450683594
      ],
      "type": "VEC2"
    },
    {
      "bufferView": 0,
      "byteOffset": 169056,
      "componentType": 5125,
      "count": 39252,
      "type": "SCALAR"
    },
    {
      "bufferView": 2,
      "byteOffset": 417480,
      "componentType": 5126,
      "count": 9958,
      "max": [
        0.9758579730987549,
        0.3222230076789856,
        0.6756399869918823
      ],
      "min": [
        -0.07538200169801712,
        -0.3222230076789856,
        -0.997418999671936
      ],
      "type": "VEC3"
    },
    {
      "bufferView": 2,
      "byteOffset": 536976,
      "componentType": 5126,
      "count": 9958,
      "max": [
        0.9977997541427612,
        0.9963986873626709,
        0.8318086862564087
      ],
      "min": [
        -0.9999865293502808,
        -0.9963986873626709,
        -0.9999711513519287
      ],
      "type": "VEC3"
    },
    {
      "bufferView": 1,
      "byteOffset": 139160,
      "componentType": 5126,
      "count": 9958,
      "max": [
        0.7348200082778931,
        0.7380899786949158
      ],
      "min": [
        0.13274000585079193,
        0.05936000123620033
      ],
      "type": "VEC2"
    },
    {
      "bufferView": 0,
      "byteOffset": 326064,
      "componentType": 5125,
      "count": 53880,
      "type": "SCALAR"
    },
    {
      "bufferView": 2,
      "byteOffset": 656472,
      "componentType": 5126,
      "count": 8279,
      "max": [
        0.9758579730987549,
        0.3278129994869232,
        0.7939170002937317
      ],
      "min": [
        -0.059811998158693314,
        -0.3278129994869232,
        -0.997418999671936
      ],
      "type": "VEC3"
    },
    {
      "bufferView": 2,
      "byteOffset": 755820,
      "componentType": 5126,
      "count": 8279,
      "max": [
        0.8422938585281372,
        0.992820680141449,
        -0.10480186343193054
      ],
      "min": [
        -0.9775732755661011,
        -0.992820680141449,
        -0.8711259961128235
      ],
      "type": "VEC3"
    },
    {
      "bufferView": 1,
      "byteOffset": 218824,
      "componentType": 5126,
      "count": 8279,
      "max": [
        0.480459988117218,
        0.4999200105667114
      ],
      "min": [
        0.002859999891370535,
        0.10724999755620956
      ],
      "type": "VEC2"
    },
    {
      "bufferView": 0,
      "byteOffset": 541584,
      "componentType": 5125,
      "count": 47472,
      "type": "SCALAR"
    },
    {
      "bufferView": 2,
      "byteOffset": 855168,
      "componentType": 5126,
      "count": 14153,
      "max": [
        0.12430799752473831,
        0.7007129788398743,
        0.996396005153656
      ],
      "min": [
        -1.0160900354385376,
        -0.7007129788398743,
        0.5782570242881775
      ],
      "type": "VEC3"
    },
    {
      "bufferView": 2,
      "byteOffset": 1025004,
      "componentType": 5126,
      "count": 14153,
      "max": [
        0.9630736112594604,
        0.9999802112579346,
        0.999985933303833
      ],
      "min": [
        -0.9999672174453735,
        -0.9999802112579346,
        -0.9255259037017822
      ],
      "type": "VEC3"
    },
    {
      "bufferView": 1,
      "byteOffset": 285056,
      "componentType": 5126,
      "count": 14153,
      "max": [
        0.47999000549316406,
        0.19832000136375427
      ],
      "min": [
        0.0033400000538676977,
        0.003949999809265137
      ],
      "type": "VEC2"
    },
    {
      "bufferView": 0,
      "byteOffset": 731472,
      "componentType": 5125,
      "count": 83136,
      "type": "SCALAR"
    },
    {
      "bufferView": 2,
      "byteOffset": 1194840,
      "componentType": 5126,
      "count": 1574,
      "max": [
        0.6490349769592285,
        0.32499799132347107,
        0.672107994556427
      ],
      "min": [
        -0.8176720142364502,
        -0.32499799132347107,
        -0.2699350118637085
      ],
      "type": "VEC3"
    },
    {
      "bufferView": 2,
      "byteOffset": 1213728,
      "componentType": 5126,
      "count": 1574,
      "max": [
        0.9861252903938293,
        0.9969673156738281,
        0.979189395904541
      ],
      "min": [
        -0.9972288012504578,
        -0.9969673156738281,
        -0.9999982118606567
      ],
      "type": "VEC3"
    },
    {
      "bufferView": 1,
      "byteOffset": 398280,
      "componentType": 5126,
      "count": 1574,
      "max": [
        0.8801599740982056,
        0.9795899987220764
      ],
      "min": [
        0.0027600000612437725,
        0.36629998683929443
      ],
      "type": "VEC2"
    },
    {
      "bufferView": 0,
      "byteOffset": 1064016,
      "componentType": 5125,
      "count": 7056,
      "type": "SCALAR"
    },
    {
      "bufferView": 2,
      "byteOffset": 1232616,
      "componentType": 5126,
      "count": 10294,
      "max": [
        0.027300000190734863,
        0.6759799718856812,
        0.8163610100746155
      ],
      "min": [
        -0.9998480081558228,
        -0.6759799718856812,
        0.5347380042076111
      ],
      "type": "VEC3"
    },
    {
      "bufferView": 2,
      "byteOffset": 1356144,
      "componentType": 5126,
      "count": 10294,
      "max": [
        0.9952555298805237,
        0.9944301247596741,
        -0.08910214155912399
      ],
      "min": [
        -0.9906952977180481,
        -0.9944301247596741,
        -0.9999983310699463
      ],
      "type": "VEC3"
    },
    {
      "bufferView": 1,
      "byteOffset": 410872,
      "componentType": 5126,
      "count": 10294,
      "max": [
        0.37929001450538635,
        0.6845700144767761
      ],
      "min": [
        0.003650000086054206,
        0.5213800072669983
      ],
      "type": "VEC2"
    },
    {
      "bufferView": 0,
      "byteOffset": 1092240,
      "componentType": 5125,
      "count": 59904,
      "type": "SCALAR"
    },
    {
      "bufferView": 2,
      "byteOffset": 1479672,
      "componentType": 5126,
      "count": 7964,
      "max": [
        0.974835991859436,
        0.6746129989624023,
        0.7918810248374939
      ],
      "min": [
        -0.9990130066871643,
        -0.6746129989624023,
        -0.9704390168190002
      ],
      "type": "VEC3"
    },
    {
      "bufferView": 2,
      "byteOffset": 1575240,
      "componentType": 5126,
      "count": 7964,
      "max": [
        0.9989915490150452,
        0.9999254941940308,
        0.9989915490150452
      ],
      "min": [
        -0.8812976479530334,
        -0.9999254941940308,
        -0.9750925302505493
      ],
      "type": "VEC3"
    },
    {
      "bufferView": 1,
      "byteOffset": 493224,
      "componentType": 5126,
      "count": 7964,
      "max": [
        0.9413400292396545,
        0.9980400204658508
      ],
      "min": [
        0.0023900000378489494,
        0.002400000113993883
      ],
      "type": "VEC2"
    },
    {
      "bufferView": 0,
      "byteOffset": 1331856,
      "componentType": 5125,
      "count": 38064,
      "type": "SCALAR"
    },
    {
      "bufferView": 2,
      "byteOffset": 1670808,
      "componentType": 5126,
      "count": 7784,
      "max": [
        1.0103410482406616,
        0.3249469995498657,
        0.7898589968681335
      ],
      "min": [
        0.03788900002837181,
        -0.3249469995498657,
        -0.9704390168190002
      ],
      "type": "VEC3"
    },
    {
      "bufferView": 2,
      "byteOffset": 1764216,
      "componentType": 5126,
      "count": 7784,
      "max": [
        0.9998655319213867,
        0.9999254941940308,
        0.9849042296409607
      ],
      "min": [
        -0.5002042651176453,
        -0.9999254941940308,
        -0.9324898719787598
      ],
      "type": "VEC3"
    },
    {
      "bufferView": 1,
      "byteOffset": 556936,
      "componentType": 5126,
      "count": 7784,
      "max": [
        0.7754499912261963,
        0.9953600168228149
      ],
      "min": [
        0.15411999821662903,
        0.6485400199890137
      ],
      "type": "VEC2"
    },
    {
      "bufferView": 0,
      "byteOffset": 1484112,
      "componentType": 5125,
      "count": 44448,
      "type": "SCALAR"
    }
  ],
  "asset": {
    "extras": {
      "author": "cosmicollie (https://sketchfab.com/cosmicollie)",
      "license": "CC-BY-4.0 (http://creativecommons.org/licenses/by/4.0/)",
      "source": "https://sketchfab.com/3d-models/controller-5ba4ef24d6554dc9b34417f41b7b0191",
      "title": "Controller"
    },
    "generator": "Sketchfab-12.65.0",
    "version": "2.0"
  },
  "bufferViews": [
    {
      "buffer": 0,
      "byteLength": 1661904,
      "name": "floatBufferViews",
      "target": 34963
    },
    {
      "buffer": 0,
      "byteLength": 619208,
      "byteOffset": 1661904,
      "byteStride": 8,
      "name": "floatBufferViews",
      "target": 34962
    },
    {
      "buffer": 0,
      "byteLength": 1857624,
      "byteOffset": 2281112,
      "byteStride": 12,
      "name": "floatBufferViews",
      "target": 34962
    }
  ],
  "buffers": [
    {
      "byteLength": 4138736,
      "uri": "scene.bin"
    }
  ],
  "images": [
    {
      "uri": "textures/Default_OBJ_baseColor.jpeg"
    },
    {
      "uri": "textures/Default_OBJ_metallicRoughness.png"
    },
    {
      "uri": "textures/Default_OBJ_emissive.jpeg"
    }
  ],
  "materials": [
    {
      "doubleSided": true,
      "emissiveFactor": [
        1.0,
        1.0,
        1.0
      ],
      "emissiveTexture": {
        "index": 2
      },
      "name": "Default_OBJ",
      "occlusionTexture": {
        "index": 1
      },
      "pbrMetallicRoughness": {
        "baseColorTexture": {
          "index": 0
        },
        "metallicRoughnessTexture": {
          "index": 1
        },
        "roughnessFactor": 0.7639100609756098
      }
    }
  ],
  "meshes": [
    {
      "name": "Object_0",
      "primitives": [
        {
          "attributes": {
            "NORMAL": 1,
            "POSITION": 0,
            "TEXCOORD_0": 2
          },
          "indices": 3,
          "material": 0,
          "mode": 4
        }
      ]
    },
    {
      "name": "Object_1",
      "primitives": [
        {
          "attributes": {
            "NORMAL": 5,
            "POSITION": 4,
            "TEXCOORD_0": 6
          },
          "indices": 7,
          "material": 0,
          "mode": 4
        }
      ]
    },
    {
      "name": "Object_2",
      "primitives": [
        {
          "attributes": {
            "NORMAL": 9,
            "POSITION": 8,
            "TEXCOORD_0": 10
          },
          "indices": 11,
          "material": 0,
          "mode": 4
        }
      ]
    },
    {
      "name": "Object_3",
      "primitives": [
        {
          "attributes": {
            "NORMAL": 13,
            "POSITION": 12,
            "TEXCOORD_0": 14
          },
          "indices": 15,
          "material": 0,
          "mode": 4
        }
      ]
    },
    {
      "name": "Object_4",
      "primitives": [
        {
          "attributes": {
            "NORMAL": 17,
            "POSITION": 16,
            "TEXCOORD_0": 18
          },
          "indices": 19,
          "material": 0,
          "mode": 4
        }
      ]
    },
    {
      "name": "Object_5",
      "primitives": [
        {
          "attributes": {
            "NORMAL": 21,
            "POSITION": 20,
            "TEXCOORD_0": 22
          },
          "indices": 23,
          "material": 0,
          "mode": 4
        }
      ]
    },
    {
      "name": "Object_6",
      "primitives": [
        {
          "attributes": {
            "NORMAL": 25,
            "POSITION": 24,
            "TEXCOORD_0": 26
          },
          "indices": 27,
          "material": 0,
          "mode": 4
        }
      ]
    },
    {
      "name": "Object_7",
      "primitives": [
        {
          "attributes": {
            "NORMAL": 29,
            "POSITION": 28,
            "TEXCOORD_0": 30
          },
          "indices": 31,
          "material": 0,
          "mode": 4
        }
      ]
    },
    {
      "name": "Object_8",
      "primitives": [
        {
          "attributes": {
            "NORMAL": 33,
            "POSITION": 32,
            "TEXCOORD_0": 34
          },
          "indices": 35,
          "material": 0,
          "mode": 4
        }
      ]
    }
  ],
  "nodes": [
    {
      "children": [
        1
      ],
      "matrix": [
        0.7202762365341187,
        0.0,
        0.0,
        0.0,
        0.0,
        1.5993345237810678e-16,
        -0.7202762365341187,
        0.0,
        0.0,
        0.7202762365341187,
        1.5993345237810678e-16,
        0.0,
        0.0,
        0.0,
        0.0,
        1.0
      ],
      "name": "Sketchfab_model"
    },
    {
      "children": [
        2,
        3,
        4,
        5,
        6,
        7,
        8,
        9,
        10
      ],
      "name": "Controller.Obj.cleaner.materialmerger.gles"
    },
    {
      "mesh": 0,
      "name": "Object_2"
    },
    {
      "mesh": 1,
      "name": "Object_3"
    },
    {
      "mesh": 2,
      "name": "Object_4"
    },
    {
      "mesh": 3,
      "name": "Object_5"
    },
    {
      "mesh": 4,
      "name": "Object_6"
    },
    {
      "mesh": 5,
      "name": "Object_7"
    },
    {
      "mesh": 6,
      "name": "Object_8"
    },
    {
      "mesh": 7,
      "name": "Object_9"
    },
    {
      "mesh": 8,
      "name": "Object_10"
    }
  ],
  "samplers": [
    {
      "magFilter": 9729,
      "minFilter": 9987,
      "wrapS": 10497,
      "wrapT": 10497
    }
  ],
  "scene": 0,
  "scenes": [
    {
      "name": "Sketchfab_Scene",
      "nodes": [
        0
      ]
    }
  ],
  "textures": [
    {
      "sampler": 0,
      "source": 0
    },
    {
      "sampler": 0,
      "source": 1
    },
    {
      "sampler": 0,
      "source": 2
    }
  ]
}
